TITLE ""
FILE "1Q_t_2068-2077.mp3" MP3
  TRACK 01 AUDIO
    TITLE "1Q_t_2068-2077_01"
    INDEX 01 00:00:00
  TRACK 02 AUDIO
    TITLE "1Q_t_2068-2077_02"
    INDEX 01 00:01:12
  TRACK 03 AUDIO
    TITLE "1Q_t_2068-2077_03"
    INDEX 01 00:01:22
  TRACK 04 AUDIO
    TITLE "1Q_t_2068-2077_04"
    INDEX 01 00:02:21
  TRACK 05 AUDIO
    TITLE "1Q_t_2068-2077_05"
    INDEX 01 00:02:29
  TRACK 06 AUDIO
    TITLE "1Q_t_2068-2077_06"
    INDEX 01 00:06:54
  TRACK 07 AUDIO
    TITLE "1Q_t_2068-2077_07"
    INDEX 01 00:07:28
  TRACK 08 AUDIO
    TITLE "1Q_t_2068-2077_08"
    INDEX 01 00:08:27
  TRACK 09 AUDIO
    TITLE "1Q_t_2068-2077_09"
    INDEX 01 00:08:35
  TRACK 10 AUDIO
    TITLE "1Q_t_2068-2077_10"
    INDEX 01 00:11:36
  TRACK 11 AUDIO
    TITLE "1Q_t_2068-2077_11"
    INDEX 01 00:11:41
  TRACK 12 AUDIO
    TITLE "1Q_t_2068-2077_12"
    INDEX 01 00:16:49
  TRACK 13 AUDIO
    TITLE "1Q_t_2068-2077_13"
    INDEX 01 00:17:21
  TRACK 14 AUDIO
    TITLE "1Q_t_2068-2077_14"
    INDEX 01 00:18:42
  TRACK 15 AUDIO
    TITLE "1Q_t_2068-2077_15"
    INDEX 01 00:18:51
  TRACK 16 AUDIO
    TITLE "1Q_t_2068-2077_16"
    INDEX 01 00:22:51
  TRACK 17 AUDIO
    TITLE "1Q_t_2068-2077_17"
    INDEX 01 00:22:59
  TRACK 18 AUDIO
    TITLE "1Q_t_2068-2077_18"
    INDEX 01 00:27:46
  TRACK 19 AUDIO
    TITLE "1Q_t_2068-2077_19"
    INDEX 01 00:28:16
  TRACK 20 AUDIO
    TITLE "1Q_t_2068-2077_20"
    INDEX 01 00:29:34
  TRACK 21 AUDIO
    TITLE "1Q_t_2068-2077_21"
    INDEX 01 00:29:43
  TRACK 22 AUDIO
    TITLE "1Q_t_2068-2077_22"
    INDEX 01 00:31:13
  TRACK 23 AUDIO
    TITLE "1Q_t_2068-2077_23"
    INDEX 01 00:31:19
  TRACK 24 AUDIO
    TITLE "1Q_t_2068-2077_24"
    INDEX 01 00:37:02
  TRACK 25 AUDIO
    TITLE "1Q_t_2068-2077_25"
    INDEX 01 00:37:47
  TRACK 26 AUDIO
    TITLE "1Q_t_2068-2077_26"
    INDEX 01 00:38:56
  TRACK 27 AUDIO
    TITLE "1Q_t_2068-2077_27"
    INDEX 01 00:38:64
  TRACK 28 AUDIO
    TITLE "1Q_t_2068-2077_28"
    INDEX 01 00:39:71
  TRACK 29 AUDIO
    TITLE "1Q_t_2068-2077_29"
    INDEX 01 00:40:04
  TRACK 30 AUDIO
    TITLE "1Q_t_2068-2077_30"
    INDEX 01 00:45:27
  TRACK 31 AUDIO
    TITLE "1Q_t_2068-2077_31"
    INDEX 01 00:45:74
  TRACK 32 AUDIO
    TITLE "1Q_t_2068-2077_32"
    INDEX 01 00:47:06
  TRACK 33 AUDIO
    TITLE "1Q_t_2068-2077_33"
    INDEX 01 00:47:14
  TRACK 34 AUDIO
    TITLE "1Q_t_2068-2077_34"
    INDEX 01 00:49:70
  TRACK 35 AUDIO
    TITLE "1Q_t_2068-2077_35"
    INDEX 01 00:50:04
  TRACK 36 AUDIO
    TITLE "1Q_t_2068-2077_36"
    INDEX 01 00:54:02
  TRACK 37 AUDIO
    TITLE "1Q_t_2068-2077_37"
    INDEX 01 00:54:47
  TRACK 38 AUDIO
    TITLE "1Q_t_2068-2077_38"
    INDEX 01 00:56:09
  TRACK 39 AUDIO
    TITLE "1Q_t_2068-2077_39"
    INDEX 01 00:56:17
  TRACK 40 AUDIO
    TITLE "1Q_t_2068-2077_40"
    INDEX 01 00:57:42
  TRACK 41 AUDIO
    TITLE "1Q_t_2068-2077_41"
    INDEX 01 00:57:49
  TRACK 42 AUDIO
    TITLE "1Q_t_2068-2077_42"
    INDEX 01 01:02:25
  TRACK 43 AUDIO
    TITLE "1Q_t_2068-2077_43"
    INDEX 01 01:02:72
  TRACK 44 AUDIO
    TITLE "1Q_t_2068-2077_44"
    INDEX 01 01:04:10
  TRACK 45 AUDIO
    TITLE "1Q_t_2068-2077_45"
    INDEX 01 01:04:22
  TRACK 46 AUDIO
    TITLE "1Q_t_2068-2077_46"
    INDEX 01 01:05:43
  TRACK 47 AUDIO
    TITLE "1Q_t_2068-2077_47"
    INDEX 01 01:05:51
  TRACK 48 AUDIO
    TITLE "1Q_t_2068-2077_48"
    INDEX 01 01:11:24
  TRACK 49 AUDIO
    TITLE "1Q_t_2068-2077_49"
    INDEX 01 01:11:69
  TRACK 50 AUDIO
    TITLE "1Q_t_2068-2077_50"
    INDEX 01 01:13:15
  TRACK 51 AUDIO
    TITLE "1Q_t_2068-2077_51"
    INDEX 01 01:13:25
  TRACK 52 AUDIO
    TITLE "1Q_t_2068-2077_52"
    INDEX 01 01:14:44
  TRACK 53 AUDIO
    TITLE "1Q_t_2068-2077_53"
    INDEX 01 01:14:52
  TRACK 54 AUDIO
    TITLE "1Q_t_2068-2077_54"
    INDEX 01 01:21:11
  TRACK 55 AUDIO
    TITLE "1Q_t_2068-2077_55"
    INDEX 01 01:21:58
  TRACK 56 AUDIO
    TITLE "1Q_t_2068-2077_56"
    INDEX 01 01:22:67
  TRACK 57 AUDIO
    TITLE "1Q_t_2068-2077_57"
    INDEX 01 01:22:73
  TRACK 58 AUDIO
    TITLE "1Q_t_2068-2077_58"
    INDEX 01 01:24:33
  TRACK 59 AUDIO
    TITLE "1Q_t_2068-2077_59"
    INDEX 01 01:24:40
  TRACK 60 AUDIO
    TITLE "1Q_t_2068-2077_60"
    INDEX 01 01:28:54
